<svg width="107" height="107" viewBox="0 0 107 107" fill="none" xmlns="http://www.w3.org/2000/svg">
<path d="M50.0557 91.0921C49.8749 91.8155 49.4575 92.4577 48.8698 92.9166C48.2821 93.3755 47.5579 93.6249 46.8123 93.625C46.5305 93.6263 46.2497 93.5926 45.9763 93.5247L32.6013 90.1809C32.229 90.0874 31.8755 89.9305 31.5564 89.717L21.5251 83.0295C20.7874 82.5373 20.2754 81.7722 20.1018 80.9025C19.9282 80.0329 20.1072 79.1298 20.5993 78.3921C21.0915 77.6544 21.8566 77.1424 22.7263 76.9688C23.596 76.7952 24.499 76.9741 25.2367 77.4663L34.7831 83.832L47.598 87.0378C48.0262 87.1416 48.4296 87.329 48.7851 87.5892C49.1407 87.8494 49.4412 88.1773 49.6696 88.5541C49.898 88.9308 50.0497 89.349 50.1159 89.7846C50.1822 90.2201 50.1617 90.6645 50.0557 91.0921ZM105.516 50.7748C105.242 51.6082 104.805 52.3789 104.231 53.0425C103.657 53.7061 102.957 54.2494 102.172 54.641L92.2747 59.5898L69.253 82.6157C68.8444 83.0239 68.337 83.3193 67.7804 83.4731C67.2237 83.6269 66.6366 83.6339 66.0764 83.4934L39.3264 76.8059C38.9196 76.7038 38.5355 76.5266 38.1937 76.2835L14.9881 59.7152L4.83983 54.641C3.25379 53.8482 2.04755 52.4579 1.48636 50.7759C0.925158 49.0938 1.05494 47.2578 1.84717 45.6714L12.2337 24.9026C13.0266 23.3165 14.4169 22.1103 16.0989 21.5491C17.7809 20.9879 19.617 21.1177 21.2033 21.9099L30.4237 26.5076L52.576 20.1795C53.177 20.0076 53.8141 20.0076 54.4151 20.1795L76.5675 26.5076L85.7878 21.9099C87.3742 21.1177 89.2102 20.9879 90.8923 21.5491C92.5743 22.1103 93.9646 23.3165 94.7575 24.9026L105.144 45.6714C105.54 46.4553 105.777 47.3099 105.841 48.1859C105.905 49.0619 105.794 49.9418 105.516 50.7748ZM86.2142 56.1833L74.8412 33.4375H61.5415L43.4685 50.9922C48.76 54.3735 57.0567 55.3056 64.5007 47.8031C65.0821 47.2171 65.8596 46.8668 66.6838 46.8198C67.5079 46.7727 68.3203 47.0321 68.9646 47.5481L83.3469 59.0715L86.2142 56.1833ZM7.82831 48.6599L15.2222 52.3589L25.6087 31.5901L18.2148 27.891L7.82831 48.6599ZM78.5779 63.8071L66.996 54.5324C58.8288 61.2199 48.459 62.1018 39.8656 56.6222C39.0203 56.0845 38.3066 55.3637 37.7772 54.5132C37.2479 53.6626 36.9164 52.704 36.8072 51.7081C36.6981 50.7122 36.8141 49.7045 37.1467 48.7595C37.4793 47.8145 38.0199 46.9563 38.7287 46.2482C38.7388 46.2361 38.75 46.2249 38.7622 46.2148L57.5123 28.029L53.4998 26.8837L32.4258 32.9067L20.986 55.7821L41.55 70.4737L65.8507 76.5468L78.5779 63.8071ZM99.1587 48.6599L88.7847 27.891L81.3908 31.5901L91.7773 52.3589L99.1587 48.6599Z" fill="white"/>
</svg>
