<svg width="107" height="107" viewBox="0 0 107 107" fill="none" xmlns="http://www.w3.org/2000/svg">
<g clip-path="url(#clip0_405_90)">
<path d="M96.2707 58.9587C95.0265 58.0013 93.5782 57.3438 92.0385 57.0372C90.4988 56.7305 88.9092 56.7831 87.3931 57.1907L69.9053 61.2115C70.3121 59.4928 70.3247 57.7043 69.942 55.98C69.5594 54.2558 68.7914 52.6405 67.6956 51.2552C66.5999 49.87 65.2049 48.7507 63.615 47.9813C62.0252 47.2119 60.2818 46.8123 58.5156 46.8125H37.5921C35.835 46.8081 34.0944 47.1519 32.4709 47.8241C30.8474 48.4964 29.3732 49.4836 28.1335 50.7289L18.679 60.1875H6.6875C4.91386 60.1875 3.21287 60.8921 1.95872 62.1462C0.704574 63.4004 0 65.1014 0 66.875L0 83.5938C0 85.3674 0.704574 87.0684 1.95872 88.3225C3.21287 89.5767 4.91386 90.2813 6.6875 90.2813H50.1562C50.4296 90.2814 50.702 90.2477 50.9671 90.1809L77.7171 83.4934C77.8876 83.4529 78.0541 83.3969 78.2145 83.3263L94.4609 76.4131L94.6448 76.3295C96.2062 75.5492 97.5433 74.3844 98.5301 72.9446C99.5169 71.5048 100.121 69.8375 100.285 68.0998C100.45 66.362 100.169 64.6111 99.4694 63.0118C98.77 61.4126 97.6749 60.0177 96.2875 58.9587H96.2707ZM6.6875 66.875H16.7188V83.5938H6.6875V66.875ZM91.7149 70.3065L75.8321 77.0693L49.7383 83.5938H23.4062V64.9147L32.8649 55.4603C33.4836 54.8366 34.2202 54.3421 35.0317 54.0056C35.8432 53.6691 36.7136 53.4972 37.5921 53.5H58.5156C59.8459 53.5 61.1216 54.0284 62.0622 54.9691C63.0028 55.9097 63.5312 57.1854 63.5312 58.5156C63.5312 59.8459 63.0028 61.1216 62.0622 62.0622C61.1216 63.0028 59.8459 63.5313 58.5156 63.5313H46.8125C45.9257 63.5313 45.0752 63.8835 44.4481 64.5106C43.821 65.1377 43.4688 65.9882 43.4688 66.875C43.4688 67.7618 43.821 68.6123 44.4481 69.2394C45.0752 69.8665 45.9257 70.2188 46.8125 70.2188H60.1875C60.4392 70.218 60.69 70.19 60.9357 70.1352L88.9396 63.6943L89.0691 63.6608C89.924 63.4235 90.8364 63.5107 91.6309 63.9057C92.4253 64.3006 93.0456 64.9755 93.3724 65.8003C93.6992 66.6251 93.7095 67.5416 93.4012 68.3735C93.0928 69.2054 92.4878 69.8939 91.7023 70.3065H91.7149ZM68.5469 40.125C69.373 40.1259 70.1978 40.0588 71.0129 39.9244C71.9297 42.6476 73.6071 45.0514 75.8468 46.8516C78.0865 48.6517 80.7948 49.7729 83.6515 50.0826C86.5082 50.3923 89.3938 49.8776 91.9673 48.5993C94.5407 47.3209 96.6943 45.3325 98.1735 42.869C99.6526 40.4055 100.395 37.57 100.314 34.6977C100.233 31.8254 99.3308 29.0364 97.7147 26.6605C96.0986 24.2847 93.836 22.4212 91.1943 21.2905C88.5527 20.1598 85.6426 19.8091 82.808 20.2799C81.9252 17.656 80.3356 15.3266 78.2143 13.5479C76.093 11.7693 73.522 10.6103 70.7845 10.1986C68.0469 9.78688 65.2488 10.1384 62.6982 11.2144C60.1475 12.2904 57.9431 14.0492 56.3276 16.2973C54.7121 18.5454 53.7481 21.1956 53.5417 23.9562C53.3353 26.7168 53.8944 29.4809 55.1577 31.9442C56.4209 34.4076 58.3392 36.4746 60.7015 37.918C63.0638 39.3614 65.7785 40.125 68.5469 40.125ZM93.625 35.1094C93.625 36.7627 93.1347 38.3789 92.2162 39.7536C91.2977 41.1283 89.9921 42.1997 88.4646 42.8324C86.9371 43.4651 85.2563 43.6307 83.6348 43.3081C82.0132 42.9856 80.5237 42.1894 79.3547 41.0204C78.1856 39.8513 77.3894 38.3618 77.0669 36.7402C76.7443 35.1187 76.9099 33.4379 77.5426 31.9104C78.1753 30.3829 79.2467 29.0774 80.6214 28.1588C81.9961 27.2403 83.6123 26.75 85.2656 26.75C87.4827 26.75 89.6089 27.6307 91.1766 29.1984C92.7443 30.7661 93.625 32.8923 93.625 35.1094ZM68.5469 16.7188C70.3705 16.7197 72.1438 17.3169 73.5964 18.4194C75.049 19.5219 76.1013 21.0691 76.5928 22.8253C74.8802 24.0303 73.438 25.5794 72.3585 27.3737C71.2789 29.1679 70.5857 31.1678 70.3232 33.2452C69.7395 33.3713 69.1441 33.4357 68.5469 33.4375C66.3298 33.4375 64.2036 32.5568 62.6359 30.9891C61.0682 29.4214 60.1875 27.2952 60.1875 25.0781C60.1875 22.8611 61.0682 20.7348 62.6359 19.1672C64.2036 17.5995 66.3298 16.7188 68.5469 16.7188Z" fill="white"/>
</g>
<defs>
<clipPath id="clip0_405_90">
<rect width="107" height="107" fill="white"/>
</clipPath>
</defs>
</svg>
