<svg width="107" height="107" viewBox="0 0 107 107" fill="none" xmlns="http://www.w3.org/2000/svg">
<path d="M83.5938 93.625H62.921C66.3937 90.5242 69.6687 87.2088 72.7266 83.6982C84.1998 70.503 90.2812 56.593 90.2812 43.4688C90.2812 33.7138 86.4061 24.3583 79.5083 17.4605C72.6105 10.5627 63.255 6.6875 53.5 6.6875C43.745 6.6875 34.3896 10.5627 27.4917 17.4605C20.5939 24.3583 16.7188 33.7138 16.7188 43.4688C16.7188 56.593 22.7835 70.503 34.2734 83.6982C37.3313 87.2088 40.6063 90.5242 44.079 93.625H23.4062C22.5194 93.625 21.6689 93.9773 21.0419 94.6044C20.4148 95.2314 20.0625 96.0819 20.0625 96.9688C20.0625 97.8556 20.4148 98.7061 21.0419 99.3331C21.6689 99.9602 22.5194 100.312 23.4062 100.312H83.5938C84.4806 100.312 85.3311 99.9602 85.9581 99.3331C86.5852 98.7061 86.9375 97.8556 86.9375 96.9688C86.9375 96.0819 86.5852 95.2314 85.9581 94.6044C85.3311 93.9773 84.4806 93.625 83.5938 93.625ZM23.4062 43.4688C23.4062 35.4874 26.5768 27.8329 32.2205 22.1893C37.8642 16.5456 45.5186 13.375 53.5 13.375C61.4814 13.375 69.1358 16.5456 74.7795 22.1893C80.4232 27.8329 83.5938 35.4874 83.5938 43.4688C83.5938 67.3891 60.409 87.3555 53.5 92.7891C46.591 87.3555 23.4062 67.3891 23.4062 43.4688ZM70.2188 43.4688C70.2188 40.1621 69.2382 36.9297 67.4011 34.1803C65.5641 31.4309 62.9529 29.288 59.898 28.0226C56.843 26.7572 53.4815 26.4261 50.2383 27.0712C46.9952 27.7163 44.0162 29.3086 41.6781 31.6468C39.3399 33.985 37.7476 36.964 37.1025 40.2071C36.4574 43.4502 36.7885 46.8118 38.0539 49.8667C39.3193 52.9217 41.4622 55.5328 44.2116 57.3699C46.9609 59.207 50.1933 60.1875 53.5 60.1875C57.9341 60.1875 62.1866 58.4261 65.3219 55.2907C68.4573 52.1553 70.2188 47.9028 70.2188 43.4688ZM43.4688 43.4688C43.4688 41.4848 44.0571 39.5453 45.1593 37.8957C46.2616 36.2461 47.8282 34.9603 49.6612 34.2011C51.4942 33.4418 53.5111 33.2432 55.457 33.6302C57.4029 34.0173 59.1903 34.9727 60.5932 36.3756C61.9961 37.7785 62.9514 39.5659 63.3385 41.5117C63.7256 43.4576 63.5269 45.4746 62.7677 47.3075C62.0084 49.1405 60.7227 50.7072 59.0731 51.8094C57.4234 52.9117 55.484 53.5 53.5 53.5C50.8395 53.5 48.2881 52.4431 46.4068 50.5619C44.5256 48.6807 43.4688 46.1292 43.4688 43.4688Z" fill="white"/>
</svg>
