<svg width="90" height="61" viewBox="0 0 90 61" fill="none" xmlns="http://www.w3.org/2000/svg">
<path d="M62.9987 58.2273C62.9987 58.9627 62.6826 59.6679 62.12 60.1879C61.5573 60.7079 60.7942 61 59.9985 61H5.99387C5.19815 61 4.43503 60.7079 3.87237 60.1879C3.30971 59.6679 2.99361 58.9627 2.99361 58.2273C2.99361 57.4919 3.30971 56.7867 3.87237 56.2667C4.43503 55.7467 5.19815 55.4546 5.99387 55.4546H59.9985C60.7942 55.4546 61.5573 55.7467 62.12 56.2667C62.6826 56.7867 62.9987 57.4919 62.9987 58.2273ZM89.9485 15.6491C89.87 16.035 89.7037 16.4011 89.4606 16.7231C89.2175 17.0452 88.9032 17.3158 88.5384 17.5172L33.2549 48.0168C30.9505 49.2657 28.3282 49.926 25.6568 49.93C21.8514 49.926 18.1915 48.5783 15.4259 46.1626L15.3809 46.121L1.86852 33.8969C1.15359 33.2695 0.616968 32.4889 0.306096 31.6243C-0.00477536 30.7596 -0.0803153 29.8375 0.0861565 28.9394C0.252628 28.0413 0.655983 27.195 1.26055 26.4753C1.86512 25.7555 2.65228 25.1846 3.55241 24.8128L4.67751 24.3034C5.38803 23.981 6.20761 23.9312 6.9577 24.1647L17.5561 27.4712L25.1205 23.2428L16.9335 15.8986C16.1973 15.2717 15.6424 14.4846 15.3195 13.6089C14.9966 12.7332 14.9159 11.7967 15.0848 10.8848C15.2537 9.97289 15.6667 9.11451 16.2864 8.38786C16.906 7.66121 17.7125 7.08938 18.6324 6.72445L18.7525 6.6794L21.4339 5.74014C22.11 5.50718 22.8543 5.50718 23.5304 5.74014L43.7596 12.6095L63.1 1.94155C66.182 0.246349 69.8213 -0.367135 73.3525 0.213248C76.8838 0.793632 80.071 2.52911 82.3316 5.10243L82.3766 5.15441L89.3672 13.4344C89.6284 13.7444 89.8152 14.1022 89.9154 14.484C90.0157 14.8658 90.0269 15.2629 89.9485 15.6491ZM82.5454 14.3667L77.67 8.58909C76.313 7.05498 74.4055 6.02168 72.2941 5.67697C70.1827 5.33226 68.0076 5.69902 66.164 6.71059L45.6122 18.0509C45.2273 18.2618 44.7965 18.3911 44.351 18.4295C43.9054 18.4679 43.4562 18.4143 43.0358 18.2727L22.4953 11.2925L20.9951 11.8228L21.0739 11.8921L32.0848 21.7663C32.4137 22.0616 32.6649 22.4226 32.8192 22.8216C32.9736 23.2207 33.0269 23.647 32.9751 24.0681C32.9233 24.4891 32.7678 24.8935 32.5205 25.2504C32.2732 25.6072 31.9407 25.9069 31.5485 26.1264L19.4688 32.8814C19.0951 33.09 18.6766 33.2207 18.2426 33.2644C17.8087 33.3081 17.3696 33.2637 16.9561 33.1344L6.20389 29.7829L6.13263 29.8176L5.99387 29.8765C6.01193 29.8884 6.02831 29.9024 6.04262 29.9181L19.5438 42.1387C20.9528 43.3624 22.7529 44.1311 24.6744 44.3298C26.5959 44.5285 28.5354 44.1465 30.2022 43.2409L82.5454 14.3667Z" fill="white" fill-opacity="0.7"/>
</svg>
