<svg width="73" height="49" viewBox="0 0 73 49" fill="none" xmlns="http://www.w3.org/2000/svg">
<path d="M72.0195 28.4609C71.7639 28.6361 71.473 28.7636 71.1635 28.8361C70.854 28.9085 70.5318 28.9246 70.2155 28.8833C69.8992 28.842 69.5949 28.7442 69.32 28.5954C69.0451 28.4466 68.8049 28.2498 68.6132 28.0162C67.1467 26.2146 65.2379 24.7529 63.0404 23.7487C60.8429 22.7445 58.4181 22.2258 55.9613 22.2346C55.4828 22.2345 55.015 22.1055 54.6163 21.8638C54.2177 21.622 53.9058 21.2782 53.7198 20.8753C53.5935 20.6017 53.5285 20.3078 53.5285 20.0109C53.5285 19.7139 53.5935 19.42 53.7198 19.1464C53.9058 18.7435 54.2177 18.3997 54.6163 18.1579C55.015 17.9162 55.4828 17.7872 55.9613 17.7872C57.3264 17.7871 58.6642 17.437 59.8226 16.7769C60.9811 16.1167 61.9137 15.1729 62.5146 14.0526C63.1156 12.9323 63.3607 11.6804 63.2221 10.4391C63.0836 9.19788 62.567 8.01701 61.7309 7.03066C60.8949 6.0443 59.773 5.292 58.4926 4.8592C57.2122 4.4264 55.8246 4.33045 54.4876 4.58226C53.1505 4.83406 51.9175 5.42352 50.9286 6.28368C49.9397 7.14384 49.2345 8.24023 48.8932 9.4483C48.8134 9.7312 48.6733 9.99694 48.4811 10.2304C48.2888 10.4638 48.0481 10.6603 47.7728 10.8087C47.4974 10.9571 47.1928 11.0545 46.8762 11.0953C46.5597 11.1362 46.2375 11.1196 45.928 11.0466C45.6184 10.9736 45.3277 10.8456 45.0723 10.6699C44.8169 10.4942 44.6018 10.2742 44.4394 10.0225C44.2771 9.77088 44.1705 9.49245 44.1258 9.20315C44.0812 8.91385 44.0993 8.61935 44.1792 8.33646C44.6529 6.66122 45.5479 5.11015 46.7929 3.80666C48.0379 2.50316 49.5986 1.48323 51.3508 0.828013C53.103 0.172794 54.9983 -0.0996249 56.886 0.0324307C58.7736 0.164486 60.6015 0.697372 62.2242 1.58869C63.8469 2.48 65.2195 3.70514 66.233 5.16663C67.2464 6.62812 67.8727 8.28561 68.0619 10.0072C68.2511 11.7288 67.9981 13.4671 67.3229 15.0836C66.6478 16.7001 65.5691 18.1503 64.1729 19.3187C67.4812 20.6279 70.3573 22.7055 72.5152 25.3449C72.7069 25.5792 72.8462 25.8456 72.925 26.1291C73.0039 26.4126 73.0207 26.7075 72.9747 26.9969C72.9286 27.2864 72.8206 27.5647 72.6566 27.8159C72.4927 28.0671 72.2762 28.2863 72.0195 28.4609ZM55.6328 45.5833C55.8089 45.8364 55.9271 46.1195 55.9803 46.4154C56.0336 46.7113 56.0208 47.0141 55.9427 47.3053C55.8646 47.5966 55.7229 47.8705 55.526 48.1104C55.3292 48.3504 55.0812 48.5514 54.7971 48.7015C54.513 48.8516 54.1987 48.9476 53.8729 48.9838C53.5472 49.0199 53.2168 48.9955 52.9016 48.9119C52.5865 48.8284 52.2931 48.6874 52.0391 48.4975C51.7851 48.3077 51.5757 48.0728 51.4236 47.807C49.8909 45.4351 47.7081 43.4694 45.0905 42.1038C42.4728 40.7383 39.5108 40.0201 36.4968 40.0201C33.4828 40.0201 30.5208 40.7383 27.9032 42.1038C25.2855 43.4694 23.1027 45.4351 21.57 47.807C21.4179 48.0728 21.2085 48.3077 20.9545 48.4975C20.7005 48.6874 20.4071 48.8284 20.092 48.9119C19.7768 48.9955 19.4465 49.0199 19.1207 48.9838C18.795 48.9476 18.4806 48.8516 18.1965 48.7015C17.9124 48.5514 17.6644 48.3504 17.4676 48.1104C17.2707 47.8705 17.129 47.5966 17.0509 47.3053C16.9728 47.0141 16.96 46.7113 17.0133 46.4154C17.0666 46.1195 17.1848 45.8364 17.3608 45.5833C19.7196 41.8792 23.3163 38.9642 27.6222 37.2667C25.1993 35.5713 23.4186 33.2245 22.5304 30.5563C21.6423 27.888 21.6913 25.0325 22.6707 22.3911C23.65 19.7496 25.5105 17.4551 27.9904 15.83C30.4704 14.2048 33.4453 13.3309 36.4968 13.3309C39.5484 13.3309 42.5232 14.2048 45.0032 15.83C47.4832 17.4551 49.3436 19.7496 50.3229 22.3911C51.3023 25.0325 51.3513 27.888 50.4632 30.5563C49.575 33.2245 47.7943 35.5713 45.3714 37.2667C49.6773 38.9642 53.274 41.8792 55.6328 45.5833ZM36.4968 35.5767C38.4217 35.5767 40.3033 35.055 41.9037 34.0777C43.5042 33.1003 44.7516 31.7111 45.4882 30.0858C46.2248 28.4605 46.4176 26.6721 46.042 24.9467C45.6665 23.2212 44.7396 21.6363 43.3785 20.3924C42.0175 19.1484 40.2833 18.3013 38.3955 17.9581C36.5076 17.6149 34.5508 17.791 32.7724 18.4642C30.9941 19.1375 29.4741 20.2775 28.4048 21.7403C27.3354 23.203 26.7646 24.9227 26.7646 26.6819C26.7646 29.041 27.7899 31.3034 29.6151 32.9715C31.4402 34.6396 33.9157 35.5767 36.4968 35.5767ZM19.4654 20.0109C19.4654 19.4211 19.2091 18.8555 18.7528 18.4385C18.2965 18.0214 17.6776 17.7872 17.0323 17.7872C15.6672 17.7871 14.3294 17.437 13.171 16.7769C12.0126 16.1167 11.0799 15.1729 10.479 14.0526C9.87806 12.9323 9.63295 11.6804 9.77147 10.4391C9.91 9.19788 10.4266 8.01701 11.2627 7.03066C12.0987 6.0443 13.2206 5.292 14.501 4.8592C15.7814 4.4264 17.169 4.33045 18.5061 4.58226C19.8431 4.83406 21.0761 5.42352 22.065 6.28368C23.0539 7.14384 23.7591 8.24023 24.1004 9.4483C24.2617 10.0196 24.6647 10.509 25.2208 10.8087C25.7769 11.1085 26.4405 11.194 27.0657 11.0466C27.6908 10.8991 28.2262 10.5308 28.5542 10.0225C28.8821 9.51429 28.9757 8.90779 28.8144 8.33646C28.3407 6.66122 27.4458 5.11015 26.2007 3.80666C24.9557 2.50316 23.395 1.48323 21.6428 0.828013C19.8906 0.172794 17.9953 -0.0996249 16.1076 0.0324307C14.22 0.164486 12.3921 0.697372 10.7694 1.58869C9.14674 2.48 7.77408 3.70514 6.76063 5.16663C5.74719 6.62812 5.12094 8.28561 4.93173 10.0072C4.74251 11.7288 4.99554 13.4671 5.67069 15.0836C6.34584 16.7001 7.42447 18.1503 8.82076 19.3187C5.5157 20.6292 2.64296 22.7066 0.487535 25.3449C0.0999589 25.8168 -0.0666714 26.41 0.0243008 26.994C0.115273 27.5781 0.456396 28.1053 0.972626 28.4595C1.48886 28.8137 2.13791 28.966 2.77699 28.8829C3.41608 28.7997 3.99285 28.488 4.38043 28.0162C5.84691 26.2146 7.75573 24.7529 9.95322 23.7487C12.1507 22.7445 14.5755 22.2258 17.0323 22.2346C17.6776 22.2346 18.2965 22.0003 18.7528 21.5832C19.2091 21.1662 19.4654 20.6006 19.4654 20.0109Z" fill="white"/>
</svg>
