<svg width="224" height="67" viewBox="0 0 224 67" fill="none" xmlns="http://www.w3.org/2000/svg">
<path d="M174.305 28.7146C174.305 29.5616 174.5 30.3667 174.849 31.0796C175.712 32.8575 177.522 34.0777 179.613 34.0777C176.882 34.0777 174.633 36.1617 174.338 38.8411V38.8495C174.318 39.0424 174.305 39.2436 174.305 39.4407C174.305 39.2394 174.297 39.0424 174.272 38.8495V38.8411C173.977 36.1617 171.728 34.0777 168.997 34.0777C171.089 34.0777 172.898 32.8575 173.762 31.0796C174.11 30.3667 174.305 29.5658 174.305 28.7146Z" fill="#8ACC50"/>
<path d="M1.7348 37.2938C0.576889 34.1489 0 30.568 0 26.7648C0 22.9617 0.576889 19.3765 1.7348 16.2359C5.35378 6.28972 14.1854 0.00421143 25.9803 0.00421143C37.7752 0.00421143 46.6069 6.29392 50.2259 16.2359C51.3838 19.3807 51.9648 22.9658 51.9648 26.7648C51.9648 30.5638 51.3838 34.1489 50.2259 37.2938C46.6816 47.1644 37.9205 53.5296 26.055 53.5296C14.1896 53.5296 5.35378 47.458 1.7348 37.2938ZM10.637 34.2244C13.0275 40.8789 18.4518 45.0469 25.9803 45.0469C33.5088 45.0469 38.8626 41.0257 41.3236 34.2244C42.1205 31.9559 42.5521 29.4694 42.5521 26.7648C42.5521 24.0603 42.1163 21.5737 41.3236 19.3052C38.9331 12.6507 33.5047 8.48274 25.9803 8.48274C18.456 8.48274 13.0234 12.6507 10.637 19.3052C9.84015 21.5737 9.40438 24.0561 9.40438 26.7648C9.40438 29.4736 9.84015 31.9559 10.637 34.2244Z" fill="#8ACC50"/>
<path d="M48.9478 59.2281H50.6825C53.7246 59.2281 54.7373 57.6934 54.7373 54.6199V16.8145H63.2784V54.6911C63.2784 62.4401 59.2984 66.4655 51.4088 66.4655H48.9478V59.2239V59.2281Z" fill="#8ACC50"/>
<path d="M68.8854 46.6529C66.7148 43.5835 65.6274 39.5581 65.6274 34.736C65.6274 29.9139 67.0759 25.6663 69.1759 22.5969C72.2138 18.1354 77.136 15.7956 82.855 15.7956C93.4214 15.7956 99.4309 22.5256 99.4309 34.0022V36.929H74.1727C74.4632 39.3443 75.0401 41.3151 76.1275 42.8497C77.6465 45.0428 79.9623 46.2881 83.3654 46.2881C87.055 46.2881 89.8066 44.6067 90.8939 41.4618H99.4351C98.2066 48.4811 91.836 53.3829 83.5854 53.3829C76.7085 53.3829 71.8611 51.0431 68.8937 46.6529H68.8854ZM90.8151 30.7106C90.5993 25.5195 87.7771 22.7394 82.9255 22.7394C80.1034 22.7394 77.6423 23.9848 76.0486 26.2491C75.2518 27.4903 74.6749 28.9537 74.3844 30.7106H90.8151Z" fill="#8ACC50"/>
<path d="M101.664 16.8187H110.205L108.034 26.3246H109.263C111.072 19.5233 114.475 15.7956 120.12 15.7956C125.187 15.7956 129.383 19.3765 129.383 26.3246H130.615C132.425 18.6469 136.695 15.7956 142.049 15.7956C149.358 15.7956 153.267 20.5506 153.267 29.6162V52.3556H144.726V31.3689C144.726 26.3246 142.771 23.6913 139.011 23.6913C134.38 23.6913 131.773 27.419 131.773 33.3439V52.3556H123.232V31.3689C123.232 26.3246 120.771 23.6913 117.368 23.6913C112.666 23.6913 110.205 27.3477 110.205 33.3439V52.3556H101.664V16.8187Z" fill="#8ACC50"/>
<path d="M163.643 42.8497H162.415L164.585 52.3556H156.044V0H164.585V16.8187L162.415 26.3246H163.643C165.668 19.4478 169.939 15.7956 176.235 15.7956C181.443 15.7956 185.788 18.0641 188.54 22.1566C190.711 25.3014 191.798 29.5407 191.798 34.5892C191.798 39.6378 190.711 43.877 188.54 47.0219C185.788 51.1186 181.447 53.3829 176.235 53.3829C169.939 53.3829 165.668 49.7265 163.643 42.8539V42.8497ZM166.465 42.1914C168.129 44.5312 170.661 45.7723 173.774 45.7723C176.886 45.7723 179.418 44.5312 181.082 42.1914C182.385 40.3632 183.107 37.7299 183.107 34.585C183.107 31.4402 182.381 28.8069 181.082 26.9787C179.418 24.6389 176.886 23.3977 173.774 23.3977C170.661 23.3977 168.129 24.6389 166.465 26.9787C165.162 28.8069 164.44 31.4402 164.44 34.585C164.44 37.7299 165.166 40.3632 166.465 42.1914Z" fill="#8ACC50"/>
<path d="M195.79 50.3806C194.055 48.6279 193.113 46.2126 193.113 43.2858C193.113 40.2164 193.98 37.8012 195.719 36.0485C197.89 33.8555 201.148 32.6101 205.489 32.3208L214.972 31.6624V29.2472C214.972 25.3727 212.656 23.0329 207.95 23.0329C201.148 23.0329 201.073 28.3708 201.073 29.0291V29.3226H192.387V29.0291C192.387 28.006 192.457 15.7914 208.166 15.7914C218.296 15.7914 223.509 20.6177 223.509 29.2472V52.3556H214.968L216.993 42.8497H215.765C213.955 50.0158 210.121 53.3787 203.679 53.3787C200.422 53.3787 197.674 52.2801 195.79 50.3806ZM202.883 45.483C203.679 46.2881 204.837 46.6529 206.282 46.6529C212.432 46.6529 214.893 40.8035 214.968 37.5119L207.514 38.3169C205.414 38.535 203.895 39.122 202.953 40.0697C202.227 40.8035 201.866 41.7511 201.866 42.8497C201.866 44.0196 202.227 44.8247 202.878 45.483H202.883Z" fill="#8ACC50"/>
<path d="M64.2452 5.35045C64.2452 2.39548 61.8742 0 58.9495 0C56.0248 0 53.6538 2.39548 53.6538 5.35045C53.6538 8.30542 56.0248 10.7009 58.9495 10.7009C61.8742 10.7009 64.2452 8.30542 64.2452 5.35045Z" fill="#8ACC50"/>
</svg>
